# xmcd
#
# Track frame offsets:
#	150
#	18464
#	32006
#	47450
#	61421
#	75472
#	92461
#	109036
#	128420
#	144801
#	160835
#	176899
#	192778
#	208364
#	225061
#	240837
#	255363
#
# Disc length: 3576 seconds
#
# Revision: 1
# Processed by: cddbd v1.5.2PL0 Copyright (c) Steve Scherf et al.
# Submitted via: audiograbber 1.83.01
#
DISCID=c20df611
DTITLE=Various Artist - CDX Volume 567 (April 1, 2013)
DYEAR=2013
DGENRE=Country
TTITLE0=Brad Paisley - Beat This Summer [Radio Edit]
TTITLE1=Kacey Musgraves - Blowin' Smoke [Radio Edit]
TTITLE2=Billy Currington - Hey Girl 
TTITLE3=Wynonna - Something You Can't Live Without
TTITLE4=Casey James - The Good Life [Radio Edit]
TTITLE5=Little Big Town - Your Side Of The Bed 
TTITLE6=Branch And Dean - Glad She's Not An Angel 
TTITLE7=Imaj - Guess Who's Coming To Dinner
TTITLE8=Lizzie Sider - I Love You That Much
TTITLE9=Steve Richard - Keep On Rollin'
TTITLE10=Jared Ashley - Last Train To Memphis
TTITLE11=Jon David - Party In The Truck
TTITLE12=Lucas Hoge - Shouldv'e Loved
TTITLE13=Mike Aiken - Summertime Song 
TTITLE14=Adam Fears - There's A Girl Out There
TTITLE15=Vince Hatfield - World Goes Round 
TTITLE16=Miss Jeanie - Walk A Little Faster
EXTD=
EXTT0=
EXTT1=
EXTT2=
EXTT3=
EXTT4=
EXTT5=
EXTT6=
EXTT7=
EXTT8=
EXTT9=
EXTT10=
EXTT11=
EXTT12=
EXTT13=
EXTT14=
EXTT15=
EXTT16=
PLAYORDER=
